<svg xmlns="http://www.w3.org/2000/svg" width="32" height="32" viewBox="-500 -3500 12000 12000">
  <path fill="#2563eb" d="M6814.04 2078.75c-298.02,-293.22 -578.51,-569.24 -863.32,-849.48 497.74,-566.27 1075.41,-1035.86 1902.33,-1111.96 1265.4,-116.46 2372.13,640.23 2674.47,1831.47 351.94,1386.69 -678.69,2797.91 -2142.13,2932.71 -791.21,72.9 -1470.02,-164.72 -2032.1,-706.22 -849.93,-818.85 -1697.89,-1639.67 -2540.84,-2465.27 -273.63,-268 -589.08,-425.2 -980.85,-419.51 -629.34,9.14 -1171.57,508.03 -1211.99,1110.41 -43.08,642.34 405.41,1195.04 1046.33,1289.96 422.83,62.61 782.88,-61.42 1086.82,-346.58 143.79,-134.9 282.8,-274.6 415.77,-404.14 289.41,280.62 573.71,556.34 858.32,832.31 -570.23,669.8 -1264.95,1145.44 -2228.8,1125.27 -1255.29,-26.29 -2314.55,-1000.38 -2402.74,-2211.65 -90.22,-1239.37 785.67,-2340.76 2032.18,-2544.09 840.13,-137.06 1574.75,84.84 2180.74,663.55 882.17,842.44 1750.26,1698.7 2630.02,2543.53 350.7,336.78 777.82,444.83 1250.39,301.57 471.17,-142.85 758.44,-463.45 855.98,-934.24 104.83,-506.04 -152.43,-1024.05 -627.66,-1279.22 -465.99,-250.22 -1061.44,-177.47 -1448,183.67 -157.91,147.52 -304.77,306.12 -454.94,457.91l0.02 0z"/>
</svg>
